<svg width="356" height="42" viewBox="0 0 356 42" fill="none" xmlns="http://www.w3.org/2000/svg">
<path d="M60 21C60 32.5692 50.3922 42 38.5434 42C37.3669 42 36.1905 41.8903 35.07 41.6984C42.0448 37.312 46.7227 29.5809 46.7227 21C46.7227 12.3642 42.0448 4.68799 35.07 0.301567C36.1905 0.109661 37.3389 0 38.5154 0C50.3922 0 60 9.40339 60 21ZM21.4566 42C9.60784 42 0 32.5692 0 21C0 9.40339 9.60784 0 21.4566 0C33.2773 0 42.9132 9.40339 42.9132 21C42.9132 32.5692 33.2773 42 21.4566 42Z" fill="#312E81"/>
<path d="M345.109 12.144C348.341 12.144 350.933 13.104 352.885 15.024C354.869 16.944 355.861 19.84 355.861 23.712V37.592C355.861 38.1443 355.413 38.592 354.861 38.592H347.741C347.189 38.592 346.741 38.1443 346.741 37.592V25.2C346.741 21.648 345.317 19.872 342.469 19.872C340.901 19.872 339.637 20.384 338.677 21.408C337.749 22.432 337.285 23.968 337.285 26.016V37.592C337.285 38.1443 336.837 38.592 336.285 38.592H329.165C328.613 38.592 328.165 38.1443 328.165 37.592V13.576C328.165 13.0238 328.613 12.576 329.165 12.576H335.853C336.405 12.576 336.853 13.0238 336.853 13.576V15.408C337.877 14.352 339.093 13.552 340.501 13.008C341.909 12.432 343.445 12.144 345.109 12.144Z" fill="#1E1B4B"/>
<path d="M323.694 12.576C324.246 12.576 324.694 13.0238 324.694 13.576V37.592C324.694 38.1443 324.246 38.592 323.694 38.592H317.006C316.454 38.592 316.006 38.1443 316.006 37.592V36C314.31 38.016 311.75 39.024 308.326 39.024C305.958 39.024 303.798 38.48 301.846 37.392C299.926 36.272 298.39 34.688 297.238 32.64C296.118 30.592 295.558 28.224 295.558 25.536C295.558 22.848 296.118 20.496 297.238 18.48C298.39 16.432 299.926 14.864 301.846 13.776C303.798 12.688 305.958 12.144 308.326 12.144C311.398 12.144 313.814 13.04 315.574 14.832V13.576C315.574 13.0238 316.022 12.576 316.574 12.576H323.694ZM310.246 31.776C311.846 31.776 313.158 31.232 314.182 30.144C315.206 29.024 315.718 27.488 315.718 25.536C315.718 23.616 315.206 22.112 314.182 21.024C313.158 19.936 311.846 19.392 310.246 19.392C308.646 19.392 307.334 19.936 306.31 21.024C305.286 22.112 304.774 23.616 304.774 25.536C304.774 27.488 305.286 29.024 306.31 30.144C307.334 31.232 308.646 31.776 310.246 31.776Z" fill="#1E1B4B"/>
<path d="M282.947 12.144C286.147 12.144 288.691 13.104 290.579 15.024C292.499 16.944 293.459 19.84 293.459 23.712V37.592C293.459 38.1443 293.011 38.592 292.459 38.592H285.339C284.786 38.592 284.339 38.1443 284.339 37.592V25.2C284.339 23.376 283.987 22.032 283.283 21.168C282.611 20.304 281.651 19.872 280.403 19.872C279.027 19.872 277.923 20.352 277.091 21.312C276.259 22.272 275.843 23.728 275.843 25.68V37.592C275.843 38.1443 275.395 38.592 274.843 38.592H267.723C267.17 38.592 266.723 38.1443 266.723 37.592V25.2C266.723 21.648 265.411 19.872 262.787 19.872C261.379 19.872 260.259 20.352 259.427 21.312C258.595 22.272 258.179 23.728 258.179 25.68V37.592C258.179 38.1443 257.731 38.592 257.179 38.592H250.059C249.506 38.592 249.059 38.1443 249.059 37.592V13.576C249.059 13.0238 249.506 12.576 250.059 12.576H256.747C257.299 12.576 257.747 13.0238 257.747 13.576V15.312C258.707 14.256 259.843 13.472 261.155 12.96C262.499 12.416 263.955 12.144 265.523 12.144C267.347 12.144 268.979 12.48 270.419 13.152C271.859 13.824 273.027 14.848 273.923 16.224C274.947 14.912 276.243 13.904 277.811 13.2C279.379 12.496 281.091 12.144 282.947 12.144Z" fill="#1E1B4B"/>
<path d="M233.433 32.2158C234.662 32.4329 235.748 32.4461 236.691 32.2553C237.538 32.0945 238.414 31.7673 239.32 31.2737C239.554 31.1461 239.849 31.2124 239.997 31.4345L243.292 36.4003C243.435 36.6157 243.391 36.9056 243.183 37.0593C240.311 39.1831 236.563 39.8365 231.938 39.0196C228.944 38.4907 226.413 37.4587 224.345 35.9234C222.277 34.3882 220.79 32.5008 219.886 30.2614C219.013 28.0275 218.802 25.6343 219.253 23.0818C219.699 20.5609 220.711 18.4163 222.291 16.6482C223.876 14.8485 225.84 13.5707 228.184 12.8148C230.558 12.0645 233.085 11.9259 235.763 12.3991C238.253 12.8389 240.43 13.7596 242.294 15.1614C244.196 16.5372 245.586 18.3263 246.464 20.5286C247.304 22.5899 247.529 24.8943 247.139 27.4418C247.103 27.679 246.898 27.8524 246.659 27.8558L228.809 28.1072C228.481 28.1118 228.246 28.426 228.369 28.7296C229.123 30.5905 230.81 31.7526 233.433 32.2158ZM234.683 18.7887C233.139 18.5159 231.793 18.7816 230.643 19.5859C229.639 20.2643 228.905 21.3285 228.44 22.7783C228.34 23.0917 228.586 23.4001 228.915 23.3942L238.472 23.2205C238.766 23.2152 238.994 22.9568 238.932 22.669C238.738 21.7738 238.319 20.9978 237.675 20.3407C236.91 19.5231 235.912 19.0058 234.683 18.7887Z" fill="#1E1B4B"/>
<path d="M215.987 39.0241C212.787 39.0241 210.291 38.2081 208.499 36.5761C206.739 34.9121 205.859 32.5441 205.859 29.4721V3.97608C205.859 3.42379 206.306 2.97607 206.859 2.97607H213.979C214.531 2.97607 214.979 3.42379 214.979 3.97607V28.9921C214.979 29.9521 215.219 30.6881 215.699 31.2001C216.211 31.7121 216.915 31.9681 217.811 31.9681C218.283 31.9681 218.736 31.9021 219.169 31.7701C219.513 31.6653 219.897 31.8885 219.917 32.2475L220.216 37.5836C220.241 38.0366 219.959 38.4537 219.52 38.5697C218.375 38.8726 217.197 39.0241 215.987 39.0241Z" fill="#1E1B4B"/>
<path d="M201.391 2.97607C201.943 2.97607 202.391 3.42379 202.391 3.97607V37.5921C202.391 38.1444 201.943 38.5921 201.391 38.5921H194.703C194.151 38.5921 193.703 38.1444 193.703 37.5921V36.0001C192.007 38.0161 189.463 39.0241 186.071 39.0241C183.703 39.0241 181.543 38.4801 179.591 37.3921C177.639 36.2721 176.087 34.6881 174.935 32.6401C173.815 30.5921 173.255 28.2241 173.255 25.5361C173.255 22.8481 173.815 20.4961 174.935 18.4801C176.087 16.4321 177.639 14.8641 179.591 13.7761C181.543 12.6881 183.703 12.1441 186.071 12.1441C189.175 12.1441 191.575 13.0401 193.271 14.8321V3.97608C193.271 3.42379 193.719 2.97607 194.271 2.97607H201.391ZM187.991 31.7761C189.559 31.7761 190.855 31.2321 191.879 30.1441C192.903 29.0241 193.415 27.4881 193.415 25.5361C193.415 23.6161 192.903 22.1121 191.879 21.0241C190.887 19.9361 189.591 19.3921 187.991 19.3921C186.391 19.3921 185.079 19.9361 184.055 21.0241C183.031 22.1121 182.519 23.6161 182.519 25.5361C182.519 27.4881 183.031 29.0241 184.055 30.1441C185.079 31.2321 186.391 31.7761 187.991 31.7761Z" fill="#1E1B4B"/>
<path d="M170.275 2.97607C170.828 2.97607 171.275 3.42379 171.275 3.97607V37.5921C171.275 38.1444 170.828 38.5921 170.275 38.5921H163.587C163.035 38.5921 162.587 38.1444 162.587 37.5921V36.0001C160.891 38.0161 158.347 39.0241 154.955 39.0241C152.587 39.0241 150.427 38.4801 148.475 37.3921C146.523 36.2721 144.971 34.6881 143.819 32.6401C142.699 30.5921 142.139 28.2241 142.139 25.5361C142.139 22.8481 142.699 20.4961 143.819 18.4801C144.971 16.4321 146.523 14.8641 148.475 13.7761C150.427 12.6881 152.587 12.1441 154.955 12.1441C158.059 12.1441 160.459 13.0401 162.155 14.8321V3.97608C162.155 3.42379 162.603 2.97607 163.155 2.97607H170.275ZM156.875 31.7761C158.443 31.7761 159.739 31.2321 160.763 30.1441C161.787 29.0241 162.299 27.4881 162.299 25.5361C162.299 23.6161 161.787 22.1121 160.763 21.0241C159.771 19.9361 158.475 19.3921 156.875 19.3921C155.275 19.3921 153.963 19.9361 152.939 21.0241C151.915 22.1121 151.403 23.6161 151.403 25.5361C151.403 27.4881 151.915 29.0241 152.939 30.1441C153.963 31.2321 155.275 31.7761 156.875 31.7761Z" fill="#1E1B4B"/>
<path d="M130.98 13.576C130.98 13.0237 131.428 12.576 131.98 12.576H139.1C139.653 12.576 140.1 13.0237 140.1 13.576V37.592C140.1 38.1443 139.653 38.592 139.1 38.592H131.98C131.428 38.592 130.98 38.1443 130.98 37.592V13.576ZM135.54 9.696C133.876 9.696 132.532 9.232 131.508 8.304C130.484 7.376 129.972 6.224 129.972 4.848C129.972 3.472 130.484 2.32 131.508 1.392C132.532 0.464 133.876 0 135.54 0C137.204 0 138.548 0.448 139.572 1.344C140.596 2.208 141.108 3.328 141.108 4.704C141.108 6.144 140.596 7.344 139.572 8.304C138.548 9.232 137.204 9.696 135.54 9.696Z" fill="#1E1B4B"/>
<path d="M114.718 4.32007C118.686 4.32007 121.774 5.50407 123.982 7.87207C126.222 10.2081 127.342 13.6001 127.342 18.0481V37.5921C127.342 38.1444 126.895 38.5921 126.342 38.5921H118.838C118.286 38.5921 117.838 38.1444 117.838 37.5921V18.3361C117.838 16.3201 117.31 14.8001 116.254 13.7761C115.198 12.7201 113.79 12.1921 112.03 12.1921C110.142 12.1921 108.638 12.7521 107.518 13.8721C106.43 14.9601 105.886 16.6081 105.886 18.8161V37.5921C105.886 38.1444 105.439 38.5921 104.886 38.5921H97.3823C96.83 38.5921 96.3823 38.1444 96.3823 37.5921V18.3361C96.3823 16.3201 95.8862 14.8001 94.8942 13.7761C93.9342 12.7201 92.6062 12.1921 90.9102 12.1921C89.0863 12.1921 87.6302 12.7521 86.5422 13.8721C85.4542 14.9601 84.9102 16.6081 84.9102 18.8161V37.5921C84.9102 38.1444 84.4625 38.5921 83.9102 38.5921H76.4063C75.854 38.5921 75.4062 38.1444 75.4062 37.5921V5.99207C75.4062 5.43978 75.854 4.99207 76.4062 4.99207H83.6223C84.1745 4.99207 84.6223 5.43978 84.6223 5.99207V8.73607C85.6463 7.29607 86.9583 6.20807 88.5583 5.47207C90.1903 4.70407 92.0782 4.32007 94.2222 4.32007C96.4303 4.32007 98.3503 4.72007 99.9823 5.52007C101.646 6.32007 102.99 7.48807 104.014 9.02407C105.166 7.48807 106.67 6.32007 108.526 5.52007C110.382 4.72007 112.446 4.32007 114.718 4.32007Z" fill="#1E1B4B"/>
</svg>
