<svg xmlns="http://www.w3.org/2000/svg" version="1.1" xmlns:xlink="http://www.w3.org/1999/xlink" xmlns:svgjs="http://svgjs.dev/svgjs" width="60" height="42"><svg width="60" height="42" viewBox="0 0 60 42" fill="none" xmlns="http://www.w3.org/2000/svg">
<path d="M60 21C60 32.5692 50.3922 42 38.5434 42C37.3669 42 36.1905 41.8903 35.07 41.6984C42.0448 37.312 46.7227 29.5809 46.7227 21C46.7227 12.3642 42.0448 4.68799 35.07 0.301567C36.1905 0.109661 37.3389 0 38.5154 0C50.3922 0 60 9.40339 60 21ZM21.4566 42C9.60784 42 0 32.5692 0 21C0 9.40339 9.60784 0 21.4566 0C33.2773 0 42.9132 9.40339 42.9132 21C42.9132 32.5692 33.2773 42 21.4566 42Z" fill="#312E81"></path>
</svg><style>@media (prefers-color-scheme: light) { :root { filter: none; } }
@media (prefers-color-scheme: dark) { :root { filter: none; } }
</style></svg>